<?xml version="1.0" encoding="utf-8"?>
<!-- Generator: Adobe Illustrator 19.2.1, SVG Export Plug-In . SVG Version: 6.00 Build 0)  -->
<svg version="1.1" id="Layer_1" xmlns="http://www.w3.org/2000/svg" xmlns:xlink="http://www.w3.org/1999/xlink" x="0px" y="0px"
	 viewBox="0 0 101.8 101.8" style="enable-background:new 0 0 101.8 101.8;" xml:space="preserve">
<style type="text/css">
	.st0{fill:#2C3D4D;}
	.st1{fill:#425261;}
	.st2{fill:#1F3546;}
	.st3{fill:#2D3E4F;}
	.st4{fill:#405260;}
	.st5{fill:#65737E;}
	.st6{fill:#7A868F;}
	.st7{fill:#64727D;}
	.st8{fill:#0E9AD6;}
	.st9{fill:none;stroke:#ED1C24;stroke-miterlimit:10;}
	.st10{fill:#50B6E7;}
	.st11{fill:#FFFFFF;}
	.st12{fill:#86CDEB;}
</style>
<g>
	<g>
		<rect x="92.7" y="8.5" class="st0" width="8.1" height="84.1"/>
		<path class="st1" d="M92.7,8.5V1.1c0,0,7-0.5,8.1,7.4H92.7z"/>
		<path class="st2" d="M92.7,92.6v8.1c0,0,7,0.4,8.1-8.1H92.7z"/>
		<rect x="9.2" y="92.6" class="st3" width="83.5" height="8.1"/>
		<path class="st4" d="M9.2,92.6H1.1c0,0-0.4,7.4,8.1,8.1V92.6z"/>
		<rect x="1.1" y="8.5" class="st5" width="8.1" height="84.1"/>
		<path class="st6" d="M1.1,8.5c0,0,0.3-7.4,8.1-7.4v7.4H1.1z"/>
		<rect x="9.2" y="1.1" class="st7" width="83.5" height="7.4"/>
		<rect x="9.2" y="8.5" class="st4" width="83.5" height="84.1"/>
	</g>
	<g>
		<polygon class="st8" points="22.4,39.8 50.9,73.6 79.5,39.8 68.5,28.2 33.5,28.2 		"/>
		<path class="st9" d="M39.9,39.8"/>
		<polygon class="st8" points="62.1,39.8 50.9,73.6 39.9,39.8 		"/>
		<path class="st9" d="M30.2,39.8"/>
		<polygon class="st10" points="50.9,39.8 62.1,39.8 53.8,64.9 50.9,40.5 50.8,39.8 		"/>
		<polygon class="st8" points="58.9,64.1 71.5,40.5 72,39.8 79.5,39.8 		"/>
		<path class="st9" d="M30.2,31.6"/>
		<polygon class="st10" points="50.9,39.8 48.1,64.9 39.9,39.8 		"/>
		<path class="st9" d="M30.2,31.6"/>
		<path class="st9" d="M30.1,31.7"/>
		<path class="st9" d="M30.1,31.7"/>
		<polygon class="st8" points="42,33 30.4,40.3 30.1,31.7 30.4,31.5 30.8,31 37.5,28.2 37.7,28.2 41.9,32.9 		"/>
		<polygon class="st10" points="42,33 40.2,39.8 31,39.8 		"/>
		<polygon class="st11" points="42,33 51,28.2 59.1,33.1 51.5,39.8 50.6,39.8 		"/>
		<polygon class="st8" points="42,33 50.6,39.8 40.2,39.8 		"/>
		<polygon class="st12" points="37.7,28.2 41.9,32.9 51,28.2 		"/>
		<polygon class="st10" points="37.5,28.2 30.8,31 33.5,28.2 		"/>
		<path class="st9" d="M70.8,30.6"/>
		<polygon class="st10" points="70.8,30.6 79.5,39.8 71.6,39.8 		"/>
		<polygon class="st10" points="62,28.2 68.5,28.2 70.1,29.9 		"/>
		<polygon class="st10" points="42.4,63.6 50.9,73.6 48.1,64.9 30.2,39.8 		"/>
		<polygon class="st12" points="22.4,39.8 30.4,31.5 30.2,39.8 		"/>
		<polygon class="st8" points="51.5,39.8 59.1,33.1 62.1,39.8 		"/>
		<polygon class="st8" points="51,28.2 59.1,33.1 61.4,28.2 		"/>
		<polygon class="st10" points="59.1,33.1 62.1,39.8 70.9,39.8 		"/>
		<polygon class="st12" points="31,39.8 40.2,39.8 48.1,64.9 30.4,40.3 		"/>
		<polygon class="st10" points="41.9,32.9 50.6,39.8 51.5,39.8 59.1,33.1 51,28.2 		"/>
		<path class="st12" d="M41.9,32.9"/>
		<polygon class="st8" points="42,33 50.9,39.8 40.2,39.8 		"/>
		<polygon class="st8" points="50.9,39.8 59.1,33.1 62.1,39.8 		"/>
		<polygon class="st8" points="50.9,39.8 50.9,39.8 53.8,64.9 48.1,64.9 		"/>
		<polygon class="st8" points="30.2,39.8 42.4,63.6 27.6,42.2 		"/>
		<polygon class="st10" points="30.2,39.8 42.4,63.6 45.1,60.7 		"/>
		<polygon class="st12" points="30.2,39.8 40.2,39.8 43.3,49.7 37.1,49.4 		"/>
		<path class="st8" d="M30.3,33.1"/>
		<polygon class="st10" points="42,33 30.2,39.8 37.6,39.8 		"/>
		<polygon class="st12" points="30.2,39.8 40.2,39.8 41.3,43.2 31.2,41.2 		"/>
		<polygon class="st8" points="41.9,32.9 40.2,39.8 44.5,39.8 45.1,35.3 		"/>
		<polygon class="st10" points="59.1,33.1 72,39.8 63.3,39.8 		"/>
		<polygon class="st10" points="71,32.7 72,39.8 77.6,39.8 		"/>
		<polygon class="st12" points="59.1,33.1 61.4,28.2 62,28.2 70.1,29.9 70.8,30.6 71.6,39.8 		"/>
		<polygon class="st12" points="53.8,64.9 71.6,39.8 58.9,64.1 51.7,72.7 		"/>
		<polygon class="st12" points="71.6,39.8 53.8,64.9 57.1,63.6 		"/>
	</g>
</g>
</svg>
