<?xml version="1.0" encoding="utf-8"?>
<!-- Generator: Adobe Illustrator 19.2.1, SVG Export Plug-In . SVG Version: 6.00 Build 0)  -->
<svg version="1.1" id="Layer_1" xmlns="http://www.w3.org/2000/svg" xmlns:xlink="http://www.w3.org/1999/xlink" x="0px" y="0px"
	 viewBox="0 0 174.8 49.5" style="enable-background:new 0 0 174.8 49.5;" xml:space="preserve">
<style type="text/css">
	.st0{fill:#405260;}
	.st1{fill:#425261;}
	.st2{fill:#64727D;}
	.st3{fill:#2D3E4F;}
	.st4{fill:#2C3D4D;}
	.st5{fill:#1F3546;}
	.st6{fill:#65737E;}
	.st7{fill:#7A868F;}
</style>
<rect x="2.6" y="2.9" class="st0" width="169.6" height="42.8"/>
<path class="st1" d="M195.9-2.8v-2.4c0,0,2.2-0.2,2.6,2.4H195.9z"/>
<rect x="3.8" y="1.6" class="st2" width="167.2" height="2.4"/>
<rect x="3.8" y="45.7" class="st3" width="167.2" height="2.4"/>
<g>
	<rect x="171" y="4" class="st4" width="2.4" height="41.7"/>
	<path class="st5" d="M171,45.7V48c0,0,2.1,0.1,2.4-2.4H171z"/>
	<path class="st1" d="M171,4h2.4c0,0,0.1-2.1-2.4-2.4V4z"/>
</g>
<g>
	<rect x="1.5" y="4" class="st6" width="2.4" height="41.7"/>
	<path class="st0" d="M3.8,45.7V48c0,0-2.1,0.1-2.4-2.4H3.8z"/>
	<path class="st7" d="M3.8,4H1.5c0,0-0.1-2.1,2.4-2.4V4z"/>
</g>
</svg>
