<?xml version="1.0" encoding="utf-8"?>
<!-- Generator: Adobe Illustrator 19.2.1, SVG Export Plug-In . SVG Version: 6.00 Build 0)  -->
<svg version="1.1" id="Layer_1" xmlns="http://www.w3.org/2000/svg" xmlns:xlink="http://www.w3.org/1999/xlink" x="0px" y="0px"
	 viewBox="0 0 101.8 101.8" style="enable-background:new 0 0 101.8 101.8;" xml:space="preserve">
<style type="text/css">
	.st0{fill:#2C3D4D;}
	.st1{fill:#425261;}
	.st2{fill:#1F3546;}
	.st3{fill:#2D3E4F;}
	.st4{fill:#405260;}
	.st5{fill:#65737E;}
	.st6{fill:#7A868F;}
	.st7{fill:#64727D;}
	.st8{fill:#4DB748;}
	.st9{fill:none;}
	.st10{fill:#AFD79C;}
	.st11{fill:#149346;}
	.st12{fill:#6DBE45;}
	.st13{fill:#166332;}
	.st14{fill:#EF4037;}
</style>
<g>
	<g>
		<rect x="92.7" y="8.4" class="st0" width="8.1" height="84.2"/>
		<path class="st1" d="M92.7,8.4V1c0,0,7-0.5,8.1,7.4H92.7z"/>
		<path class="st2" d="M92.7,92.7v8.2c0,0,7,0.4,8.1-8.2H92.7z"/>
		<rect x="9.1" y="92.7" class="st3" width="83.6" height="8.2"/>
		<path class="st4" d="M9.1,92.7H1c0,0-0.4,7.4,8.1,8.2V92.7z"/>
		<rect x="1" y="8.4" class="st5" width="8.1" height="84.2"/>
		<path class="st6" d="M1,8.4C1,8.4,1.3,1,9.1,1v7.4H1z"/>
		<rect x="9.1" y="1" class="st7" width="83.6" height="7.4"/>
		<rect x="9.1" y="8.4" class="st4" width="83.6" height="84.2"/>
	</g>
	<g>
		<polygon class="st8" points="37.9,65.2 51.3,67.7 64.8,65.4 60,52.1 50.9,41.8 42.3,51.7 		"/>
		<path class="st9" d="M48.8,29.6c0,0,0.5-1.4,2.1-1.4c0,0,1.2-0.3,2.5,1.4l23,40.6c0,0,2.3,3.4-1.4,3.4H26.7c0,0-3.8,0.5-0.9-4.7
			L48.8,29.6z"/>
		<path class="st10" d="M53,29.1l-2.1,12.7l-2.1-12.2c0,0,0.6-1.5,2.1-1.4C50.9,28.2,52,28,53,29.1z"/>
		<polygon class="st11" points="52.7,30.8 53,29.1 76.6,70.7 60,52.1 		"/>
		<path class="st10" d="M64.8,65.4l12.1,5.9c0,0,0.8,1.9-1.2,2.2L64.8,65.4z"/>
		<polygon class="st12" points="51.3,67.7 75.7,73.6 64.8,65.4 		"/>
		<polygon class="st13" points="60,52.1 64.8,65.4 76.9,71.3 76.7,70.9 74.9,68.8 		"/>
		<path class="st11" d="M48.8,29.6l0.4,2.2l-6.9,19.8L24.9,71.3c0,0,0.1-1.2,2-4.1L48.8,29.6z"/>
		<path class="st10" d="M24.9,71.3l13-6.1l-11.1,8.5C26.7,73.7,24.2,73.8,24.9,71.3z"/>
		<polygon class="st11" points="26.7,73.7 51.6,67.7 76,73.7 		"/>
		<polygon class="st12" points="24.9,71.3 42.3,51.7 37.9,65.2 		"/>
		<polygon class="st12" points="52.7,30.8 60,52.1 50.9,41.8 		"/>
		<polygon class="st13" points="49.2,31.9 42.3,51.7 50.9,41.8 		"/>
		<polygon class="st13" points="26.7,73.7 37.9,65.2 51.3,67.7 		"/>
		<path class="st14" d="M51.6,67.7"/>
	</g>
</g>
</svg>
