<?xml version="1.0" encoding="utf-8"?>
<!-- Generator: Adobe Illustrator 19.2.1, SVG Export Plug-In . SVG Version: 6.00 Build 0)  -->
<svg version="1.1" id="Layer_1" xmlns="http://www.w3.org/2000/svg" xmlns:xlink="http://www.w3.org/1999/xlink" x="0px" y="0px"
	 viewBox="0 0 101.8 101.8" style="enable-background:new 0 0 101.8 101.8;" xml:space="preserve">
<style type="text/css">
	.st0{fill:#2C3D4D;}
	.st1{fill:#425261;}
	.st2{fill:#1F3546;}
	.st3{fill:#2D3E4F;}
	.st4{fill:#405260;}
	.st5{fill:#65737E;}
	.st6{fill:#7A868F;}
	.st7{fill:#64727D;}
	.st8{fill:#1F0D32;}
	.st9{fill:#2F184F;}
	.st10{fill:#402768;}
	.st11{fill:#472C77;}
	.st12{fill:none;stroke:#2D55A6;stroke-miterlimit:10;}
</style>
<g>
	<g>
		<rect x="92.5" y="8.6" class="st0" width="8.1" height="83.8"/>
		<path class="st1" d="M92.5,8.6V1.3c0,0,7-0.5,8.1,7.4H92.5z"/>
		<path class="st2" d="M92.5,92.5v8.1c0,0,7,0.4,8.1-8.1H92.5z"/>
		<rect x="9.3" y="92.5" class="st3" width="83.2" height="8.1"/>
		<path class="st4" d="M9.3,92.5H1.3c0,0-0.4,7.4,8.1,8.1V92.5z"/>
		<rect x="1.3" y="8.6" class="st5" width="8.1" height="83.8"/>
		<path class="st6" d="M1.3,8.6c0,0,0.3-7.4,8.1-7.4v7.4H1.3z"/>
		<rect x="9.3" y="1.2" class="st7" width="83.2" height="7.4"/>
		<rect x="9.3" y="8.6" class="st4" width="83.2" height="83.8"/>
	</g>
	<g>
		<polygon class="st8" points="28.1,41.5 28.1,60.6 41.4,73.5 61.1,73.5 73.8,60.4 73.8,41.5 60.6,28.3 41.2,28.3 		"/>
		<polygon class="st9" points="37.1,45.5 45.3,36.1 56,37.8 63.7,41.5 64.9,55.7 56.8,63.9 44.5,63.3 37.6,56.4 		"/>
		<polygon class="st8" points="28.1,41.5 34.5,43.5 34.5,35 		"/>
		<polygon class="st9" points="34.5,43.5 28.1,51.2 28.1,41.5 		"/>
		<polygon class="st10" points="34.5,43.5 35,56.4 28.1,51.2 		"/>
		<polygon class="st8" points="28.1,60.6 35,56.4 28.1,50.9 		"/>
		<polygon class="st9" points="35,56.4 34.8,67.1 28.1,60.6 		"/>
		<polygon class="st8" points="34.5,43.5 37.6,50.5 35,56.4 		"/>
		<polygon class="st11" points="37.6,50.5 41.5,59.3 35,56.4 		"/>
		<polygon class="st8" points="34.8,67.1 44.5,66 41.4,73.5 		"/>
		<polygon class="st10" points="41.5,59.3 44.5,66 34.8,67.1 35,56.4 		"/>
		<polygon class="st9" points="44.5,66 50.9,73.5 41.4,73.5 		"/>
		<polygon class="st10" points="57.5,66 50.9,73.5 44.5,66 		"/>
		<polygon class="st11" points="41.5,59.3 51.3,63.3 44.5,66 		"/>
		<polygon class="st8" points="51.3,63.3 57.5,66 44.5,66 		"/>
		<polygon class="st11" points="51.3,63.3 60.4,59.6 57.5,66 		"/>
		<polygon class="st11" points="34.5,43.5 42,40.6 37.6,50.5 		"/>
		<polygon class="st11" points="42,40.6 50.3,37.4 44.5,35 		"/>
		<polygon class="st10" points="34.5,35 44.5,35 42,40.6 34.5,43.5 		"/>
		<polygon class="st8" points="44.5,35 57.5,34.7 50.3,37.4 		"/>
		<polygon class="st11" points="57.5,34.7 60.4,41.5 50.3,37.4 		"/>
		<polygon class="st11" points="60.4,41.5 64.1,50.9 67.1,44 		"/>
		<polygon class="st10" points="57.5,34.7 67.1,34.7 67.1,44 60.4,41.5 		"/>
		<polygon class="st8" points="67.1,44 67.1,57.3 64.1,50.9 		"/>
		<polygon class="st11" points="60.4,59.6 64.1,50.9 67.1,57.3 		"/>
		<path class="st12" d="M57.5,66"/>
		<polygon class="st10" points="67.1,57.3 67.1,67.1 57.5,66 60.4,59.6 		"/>
		<polygon class="st8" points="50.9,73.5 57.5,66 61.1,73.5 		"/>
		<polygon class="st9" points="57.5,66 67.1,67.1 61.1,73.5 		"/>
		<polygon class="st8" points="67.1,57.3 73.8,60.4 67.1,67.1 		"/>
		<polygon class="st9" points="67.1,57.3 73.8,50.9 73.8,60.4 		"/>
		<polygon class="st10" points="67.1,44 73.8,50.9 67.1,57.3 		"/>
		<polygon class="st8" points="67.1,44 73.8,41.5 73.8,50.9 		"/>
		<polygon class="st9" points="67.1,34.7 73.8,41.5 67.1,44 		"/>
		<polygon class="st9" points="41.2,28.3 44.5,35 34.5,35 		"/>
		<polygon class="st8" points="41.2,28.3 44.5,35 50.6,28.3 		"/>
		<polygon class="st10" points="50.6,28.3 57.5,34.7 44.5,35 		"/>
		<polygon class="st9" points="57.5,34.7 60.6,28.3 50.6,28.3 		"/>
	</g>
</g>
</svg>
