<?xml version="1.0" encoding="utf-8"?>
<!-- Generator: Adobe Illustrator 19.2.1, SVG Export Plug-In . SVG Version: 6.00 Build 0)  -->
<svg version="1.1" id="Layer_1" xmlns="http://www.w3.org/2000/svg" xmlns:xlink="http://www.w3.org/1999/xlink" x="0px" y="0px"
	 viewBox="0 0 101.8 101.8" style="enable-background:new 0 0 101.8 101.8;" xml:space="preserve">
<style type="text/css">
	.st0{fill:#2C3D4D;}
	.st1{fill:#425261;}
	.st2{fill:#1F3546;}
	.st3{fill:#2D3E4F;}
	.st4{fill:#405260;}
	.st5{fill:#65737E;}
	.st6{fill:#7A868F;}
	.st7{fill:#64727D;}
	.st8{fill:#EB7374;}
	.st9{fill:#A02928;}
	.st10{fill:#BF3636;}
	.st11{fill:#E66868;}
	.st12{fill:#F9B7B9;}
	.st13{fill:#C54140;}
	.st14{fill:#D94E4E;}
</style>
<g>
	<g>
		<rect x="92.7" y="8.4" class="st0" width="8.1" height="84.2"/>
		<path class="st1" d="M92.7,8.4V1c0,0,7-0.5,8.1,7.4H92.7z"/>
		<path class="st2" d="M92.7,92.7v8.2c0,0,7,0.4,8.1-8.2H92.7z"/>
		<rect x="9.1" y="92.7" class="st3" width="83.6" height="8.2"/>
		<path class="st4" d="M9.1,92.7H1c0,0-0.4,7.4,8.1,8.2V92.7z"/>
		<rect x="1" y="8.4" class="st5" width="8.1" height="84.2"/>
		<path class="st6" d="M1,8.4C1,8.4,1.4,1,9.1,1v7.4H1z"/>
		<rect x="9.1" y="1" class="st7" width="83.6" height="7.4"/>
		<rect x="9.1" y="8.4" class="st4" width="83.6" height="84.2"/>
	</g>
	<g>
		<polygon class="st8" points="35.2,35.9 37.3,32.7 42.1,45.4 42.8,58.1 36.9,69.2 34.8,66.2 		"/>
		<polygon class="st9" points="42.4,51.4 42.4,35.9 50.9,33.7 60.6,38 60.1,67.6 51.3,67.6 42.4,64.5 		"/>
		<polygon class="st8" points="64.9,35.4 59.8,51.1 64.4,67.6 67.2,67.6 66.9,35.1 65.6,34 		"/>
		<polygon class="st9" points="40,28.1 41.1,31.1 61.5,31.1 62.8,28.1 		"/>
		<polygon class="st10" points="62.8,28.1 68.3,34 65.6,35.1 61.5,31.1 		"/>
		<polygon class="st9" points="65.6,35.1 65.6,66.6 68.3,68.3 68.3,34 		"/>
		<polygon class="st10" points="41.1,31.1 36.9,35.1 33.6,33.7 40,28.1 		"/>
		<polygon class="st9" points="36.9,35.1 36.9,66.9 33.6,68.3 33.6,33.7 		"/>
		<polygon class="st10" points="36.9,66.9 41.1,70.7 40,73.8 33.6,68.3 		"/>
		<polygon class="st9" points="41.1,70.7 61.5,70.3 62.9,73.8 40,73.8 		"/>
		<polygon class="st10" points="61.5,70.3 65.6,66.6 68.3,68.3 62.9,73.8 		"/>
		<path class="st11" d="M41.1,31.1c0,0,5.4,3.8,10.8,4.8c0,0,6.9-2.7,9.6-4.8H41.1z"/>
		<path class="st11" d="M41.1,70.7c0,0,6.3-3.9,10.4-4.5c0,0,4,0.8,10.1,4.2L41.1,70.7z"/>
		<path class="st12" d="M61.5,31.1c0,0-2.1,3.8-2.8,6.9c0,0,3.4-0.9,6.8-2.9L61.5,31.1z"/>
		<path class="st12" d="M41.1,31.1c0,0,2.3,5.1,2.4,6.9c0,0-3.3-0.6-6.6-2.9L41.1,31.1z"/>
		<path class="st13" d="M43.5,38c0,0,5.2-0.2,8.4-2.1c0,0-6.2-1.3-10.8-4.8C41.1,31.1,42.7,34.2,43.5,38z"/>
		<path class="st14" d="M51.9,35.9c0,0,3,1.8,6.8,2.1c0,0,1.4-5.1,2.8-6.9C61.5,31.1,56.3,34.3,51.9,35.9z"/>
		<path class="st13" d="M58.7,38c0,0-0.6,4.7,1.1,13.1c0,0,3.6-12,5.7-16C65.6,35.1,62.3,37,58.7,38z"/>
		<path class="st14" d="M59.8,51.1c0,0,3.6,12.7,5.7,15.4c0,0-4.9-1.9-6.5-2C59.1,64.6,58.1,58.6,59.8,51.1z"/>
		<path class="st12" d="M59.1,64.6c0,0,0.3,1.9,2.5,5.8l4-3.8C65.6,66.6,61.6,64.9,59.1,64.6z"/>
		<path class="st13" d="M59.1,64.6c0,0-5.7,0.3-7.6,1.6c0,0,3.8,0.7,10.1,4.2C61.5,70.3,59.6,67.2,59.1,64.6z"/>
		<path class="st14" d="M36.9,35.1c0,0,3.9,7.7,5.6,16.3c0,0,1.5-5.9,1.1-13.4C43.5,38,39.8,37.2,36.9,35.1z"/>
		<path class="st13" d="M42.4,51.4c0,0,2.1,4.8,1.5,13.2c0,0-3.2,0.2-7,2.3C36.9,66.9,42,57.3,42.4,51.4z"/>
		<path class="st12" d="M36.9,66.9c0,0,2.8-1.8,7-2.3c0,0-0.3,2.1-2.8,6.1L36.9,66.9z"/>
		<path class="st14" d="M43.9,64.6c0,0,4.4-0.3,7.6,1.6c0,0-4.4,0.6-10.4,4.5C41.1,70.7,43.3,67.3,43.9,64.6z"/>
	</g>
</g>
</svg>
