<?xml version="1.0" encoding="utf-8"?>
<!-- Generator: Adobe Illustrator 19.2.1, SVG Export Plug-In . SVG Version: 6.00 Build 0)  -->
<svg version="1.1" id="Layer_1" xmlns="http://www.w3.org/2000/svg" xmlns:xlink="http://www.w3.org/1999/xlink" x="0px" y="0px"
	 viewBox="0 0 185.8 101.8" style="enable-background:new 0 0 185.8 101.8;" xml:space="preserve">
<style type="text/css">
	.st0{fill:#2C3D4D;}
	.st1{fill:#425261;}
	.st2{fill:#1F3546;}
	.st3{fill:#2D3E4F;}
	.st4{fill:#405260;}
	.st5{fill:#65737E;}
	.st6{fill:#7A868F;}
	.st7{fill:#64727D;}
</style>
<g>
	<rect x="176.5" y="8.4" class="st0" width="8.1" height="84.2"/>
	<path class="st1" d="M176.5,8.4V1c0,0,7-0.5,8.1,7.4H176.5z"/>
	<path class="st2" d="M176.5,92.7v8.2c0,0,7,0.4,8.1-8.2H176.5z"/>
	<rect x="9.3" y="92.7" class="st3" width="167.2" height="8.2"/>
	<path class="st4" d="M9.3,92.7H1.2c0,0-0.4,7.4,8.1,8.2V92.7z"/>
	<rect x="1.2" y="8.4" class="st5" width="8.1" height="84.2"/>
	<path class="st6" d="M1.2,8.4c0,0,0.3-7.4,8.1-7.4v7.4H1.2z"/>
	<rect x="9.3" y="1" class="st7" width="167.2" height="7.4"/>
	<rect x="9.3" y="8.4" class="st4" width="167.5" height="84.2"/>
</g>
</svg>
