<?xml version="1.0" encoding="utf-8"?>
<!-- Generator: Adobe Illustrator 19.2.1, SVG Export Plug-In . SVG Version: 6.00 Build 0)  -->
<svg version="1.1" id="Layer_1" xmlns="http://www.w3.org/2000/svg" xmlns:xlink="http://www.w3.org/1999/xlink" x="0px" y="0px"
	 viewBox="0 0 100 100" style="enable-background:new 0 0 100 100;" xml:space="preserve">
<style type="text/css">
	.st0{fill:#2C3D4D;}
	.st1{fill:#425261;}
	.st2{fill:#1F3546;}
	.st3{fill:#2D3E4F;}
	.st4{fill:#405260;}
	.st5{fill:#65737E;}
	.st6{fill:#7A868F;}
	.st7{fill:#64727D;}
</style>
<g>
	<rect x="90.9" y="8.4" class="st0" width="7.9" height="82.5"/>
	<path class="st1" d="M90.9,8.4V1.1c0,0,6.9-0.5,7.9,7.3H90.9z"/>
	<path class="st2" d="M90.9,90.9v8c0,0,6.9,0.4,7.9-8H90.9z"/>
	<rect x="9.1" y="90.9" class="st3" width="81.9" height="8"/>
	<path class="st4" d="M9.1,90.9H1.1c0,0-0.4,7.3,7.9,8V90.9z"/>
	<rect x="1.1" y="8.4" class="st5" width="7.9" height="82.5"/>
	<path class="st6" d="M1.1,8.4c0,0,0.3-7.3,7.9-7.3v7.3H1.1z"/>
	<rect x="9.1" y="1.1" class="st7" width="81.9" height="7.3"/>
	<rect x="9.1" y="8.4" class="st4" width="81.9" height="82.5"/>
</g>
</svg>
